<svg class="svg-icon" style="width: 1.2421875em; height: 1em;vertical-align: middle;fill: currentColor;overflow: hidden;" viewBox="0 0 1272 1024" version="1.1" xmlns="http://www.w3.org/2000/svg"><path d="M1222.834951 586.563107a49.708738 49.708738 0 0 0 49.708738-49.708738V198.834951c0-109.637592-89.197359-198.834951-198.834951-198.834951H198.834951C89.197359 0 0 89.197359 0 198.834951v626.330098c0 109.637592 89.197359 198.834951 198.834951 198.834951h874.873787c109.637592 0 198.834951-89.197359 198.834951-198.834951v-19.883496a49.708738 49.708738 0 1 0-99.417475 0v19.883496c0 54.818796-44.59868 99.417476-99.417476 99.417475H887.300971V720.776699h111.84466a49.708738 49.708738 0 1 0 0-99.417476H887.300971v-218.718446H1173.126214V536.854369a49.708738 49.708738 0 0 0 49.708737 49.708738zM387.728155 924.582524H198.834951c-54.818796 0-99.417476-44.59868-99.417475-99.417475V720.776699h288.310679V924.582524z m0-303.223301H99.417476v-218.718446h288.310679v218.718446z m0-318.135922H99.417476V198.834951c0-54.818796 44.59868-99.417476 99.417475-99.417475h188.893204v203.805825zM787.883495 924.582524H487.145631V720.776699h300.737864V924.582524z m0-303.223301H487.145631v-218.718446h300.737864v218.718446z m0-318.135922H487.145631V99.417476h300.737864v203.805825z m99.417476 0V99.417476H1073.708738c54.818796 0 99.417476 44.59868 99.417476 99.417475v104.38835H887.300971z" fill="#4A90E2" /></svg>